# xmcd CD database file
#
# Track frame offsets:
#	150
#	13451
#	25704
#	37085
#	48766
#	62516
#	76287
#	87522
#	98940
#	110743
#	124406
#	136230
#	144996
#
# Disc length: 2122 seconds
#
# Revision: 0
# Processed by: cddbd v1.5PL3 Copyright (c) Steve Scherf et al.
# Submitted via: CDex 1.51
#
DISCID=b108480d
DTITLE=Ray Charles - C.C. Rider Cd 2
DYEAR=2001
DGENRE=Jazz
TTITLE0=The snow is falling
TTITLE1=Honey, honey
TTITLE2=Sue´s on the ball
TTITLE3=How long
TTITLE4=I´m gonna drown myself
TTITLE5=Someday
TTITLE6=Let´s have a ball
TTITLE7=If I give you my love
TTITLE8=Can´t see you darling
TTITLE9=This love of mine
TTITLE10=St. Pete blues
TTITLE11=Going away blues
TTITLE12=Blues is my middle name
EXTD=YEAR: 2001
EXTT0=
EXTT1=
EXTT2=
EXTT3=
EXTT4=
EXTT5=
EXTT6=
EXTT7=
EXTT8=
EXTT9=
EXTT10=
EXTT11=
EXTT12=
PLAYORDER=
